<svg xmlns="http://www.w3.org/2000/svg" viewBox="0 0 793 949">
    <defs>
        <style>
            .cls-1,
            .cls-8 {
                fill: #212121;
            }

            .cls-1,
            .cls-3,
            .cls-4 {
                stroke: #000;
                stroke-linecap: round;
                stroke-linejoin: round;
                stroke-width: 3px;
            }

            .cls-2,
            .cls-4 {
                fill: #2d2d2d;
            }

            .cls-3 {
                fill: none;
            }

            .cls-5 {
                fill: #ececec;
            }

            .cls-6 {
                fill: #4d4d4d;
            }

            .cls-7 {
                fill: #ccc;
            }

            .cls-9 {
                fill: #fff;
            }

            .cls-10 {
                fill: #cd0707;
            }

            .cls-11 {
                fill: #920000;
            }

            .cls-12 {
                fill: gray;
            }
        </style>
    </defs>
    <title>SANTA LUZIA</title>
    <g id="Camada_2" data-name="Camada 2">
        <g id="Camada_1-2" data-name="Camada 1">
            <g id="g10311">
                <path id="path5071" class="cls-1"
                    d="M723.54,421.57c-20.82-10-38.64-22.34-25.15-59.07-7.93,15.75-31.85,3.46-13.29,65.64-26-8-29.58-26.21-29-46.32,5.82,23.43-28.31,35.43,23.27,71.95l19,58.68c4.74-1.59,10.38-5.67,12.37-2.71,6.66,9.91,20,13.38,31.34,13.36,16.63-.29,24.5-7.75,29.38-22.36,5.25-16.25-1.28-33.72-13.49-50.37C746.9,434.58,739.19,429.05,723.54,421.57Z" />
                <path id="rect3186-5-1" class="cls-2"
                    d="M706.92,421.85c-18.27-9.65-23.1-26.42-16.12-43.91-7.93,15.75-10.62-.09,7.94,62.09-26-8-38.42-12-43.12-33,1.84,23.43,15.06,36.31,41,45.37l7.48,49.81c4.74-1.59,3.3.53,11.49-6.25,10.15,18,30.73,21.22,36.9,15.08,24.16-24,14.82-39.91-8.25-65.84-8.48-11.67-26-17.4-37.29-23.33Z" />
                <path id="path5073" class="cls-1"
                    d="M712.17,437c-10.07,7.05-20,18-32.42,17.84-15.28-.24-25.47,12-36.47,19.88C638.85,536.47,657.19,574,691.92,594l26.22,99.21c31.12,63.24,102.82,20.92,60.16-54.74l-42-74.3C667.8,508.55,704,461.43,712.17,437Z" />
                <path id="rect3183-4-5" class="cls-2"
                    d="M698.43,451c-10.07,7.06-6.78,9.19-19.14,9-15.28-.25-16.63,7.56-27.63,15.44-4.43,61.73,19.22,95.69,54,115.74l10.29,89.46c35.6,73.11,97.73,32.92,54.86-43.22l-41.08-69.87C661.14,511.85,690.31,475.37,698.43,451Z" />
                <path id="rect3186" class="cls-1"
                    d="M75.56,418.81C93.83,409.17,107.5,396,95.22,362.5c7.93,15.75,31.85,3.46,13.29,65.64,26-8,29.58-26.21,29-46.32-1.84,23.43,28.31,35.43-23.27,71.95l-19,58.68c-4.75-1.59-10.38-5.67-12.37-2.71-11.51,17.13-43.12,15-49.3,8.88-24.15-24.05-12.16-53.2,10.91-79.13,8.48-11.68,19.77-14.74,31.1-20.68Z" />
                <path id="rect3186-5" class="cls-2"
                    d="M87.54,421.92c18.26-9.65,23.09-26.42,16.11-43.91,7.93,15.75,10.62-.09-7.94,62.09,26-8,38.42-12,43.12-33-1.84,23.43-15.06,36.31-41,45.37l-7.48,49.81c-4.74-1.59-3.3.53-11.49-6.25C68.74,514,48.16,517.23,42,511.09c-24.16-24-14.82-39.91,8.25-65.84,8.48-11.67,26-17.4,37.3-23.33Z" />
                <path id="rect3183" class="cls-1"
                    d="M81.44,437c10.07,7.05,20,18,32.41,17.84,15.29-.24,25.48,12,36.48,19.88C154.76,536.47,136.42,574,101.69,594L75.47,693.23c-35.6,73.11-103,21.4-60.16-54.74l42-74.3C125.81,508.55,89.56,461.43,81.44,437Z" />
                <path id="rect3183-4" class="cls-2"
                    d="M95.18,455.27c10.07,7.05,6.78,9.18,19.14,9C129.6,464,131,471.81,142,479.69c4.43,61.73-19.22,95.69-53.95,115.74L77.71,684.89C42.11,758-20,717.82,22.85,641.67L63.93,571.8c68.54-55.64,39.38-92.12,31.25-116.53Z" />
                <g id="g3262">
                    <path id="path3219" class="cls-3" d="M98.41,589.22l22.18-20.09" />
                    <path id="path2398" class="cls-3" d="M39.63,501.72l15.43,15.94" />
                    <path id="path3170" class="cls-3" d="M44.34,501.07,59.76,517" />
                    <path id="path4903" class="cls-3" d="M90.83,585.31,113,565.22" />
                    <path id="path4905" class="cls-3" d="M83.71,583.93l22.19-20.09" />
                    <path id="path4907" class="cls-3" d="M78.2,582.09,100.39,562" />
                    <path id="path4909" class="cls-3" d="M70.62,580.94l22.19-20.09" />
                    <path id="path4911" class="cls-3" d="M61.72,581.85l22.19-20.09" />
                    <path id="path4913" class="cls-3" d="M48.09,582.27l22.18-20.09" />
                    <path id="path4915" class="cls-3" d="M50.88,575.26l13-12.47" />
                    <path id="path4919" class="cls-3" d="M53.4,582.55l22.19-20.09" />
                </g>
                <g id="g3257">
                    <path id="path3191" class="cls-3" d="M43.48,671.8,12.54,696.14" />
                    <path id="path3203" class="cls-3" d="M25.19,667.33l6.47-12.17" />
                    <path id="path3205" class="cls-3" d="M34.11,677l6-10.47" />
                    <path id="path3226" class="cls-3" d="M26.09,725.17,22,710.63" />
                    <path id="path3228" class="cls-3" d="M29.31,724.93l-4.08-14.55" />
                    <path id="path3230" class="cls-3" d="M33.44,725.67l-4.08-16" />
                    <path id="path3232" class="cls-3" d="M37.71,723.94,33.63,709.4" />
                    <path id="path3234" class="cls-3" d="M42.63,722l-4.09-14.54" />
                    <path id="path3236" class="cls-3" d="M20,667.33l8.08-17.74" />
                    <path id="path3238" class="cls-3" d="M30.06,669.08l8.09-14.26" />
                </g>
                <g id="g5053">
                    <path id="path3189" class="cls-4" d="M30,498.65l52.13-60.94" />
                    <g id="g3273">
                        <path id="path3172" class="cls-4" d="M47.26,498l15.43,15.94" />
                        <path id="path3174" class="cls-4" d="M55.81,497.22,68.37,509" />
                        <path id="path3178" class="cls-4" d="M68.69,461.88,87,445.62" />
                        <path id="path3180" class="cls-4" d="M74.7,463.67,89,450.33" />
                        <path id="path3182" class="cls-4" d="M82.17,463.67l7.5-7.77" />
                        <path id="path3184" class="cls-4" d="M96,458l8.8,18.25" />
                        <path id="path3186" class="cls-4" d="M103.77,458l8.79,18.25" />
                        <path id="path3188" class="cls-4" d="M114.81,463l3.28,17.28" />
                        <path id="path3190" class="cls-4" d="M123.25,468.22l3.28,17.28" />
                        <path id="path3192" class="cls-4" d="M129.58,469.69,132.86,487" />
                        <path id="path3194" class="cls-4" d="M135.11,470.66l3.6,19.07" />
                        <path id="path3196" class="cls-4" d="M141.76,473.43,145,490.7" />
                    </g>
                </g>
                <g id="g5097">
                    <path id="path5099" class="cls-3" d="M695.2,589.22,673,569.13" />
                    <path id="path5101" class="cls-3" d="M754,501.72l-15.43,15.94" />
                    <path id="path5103" class="cls-3" d="M749.27,501.07,733.84,517" />
                    <path id="path5105" class="cls-3" d="M702.78,585.31l-22.19-20.09" />
                    <path id="path5107" class="cls-3" d="M709.9,583.93l-22.19-20.09" />
                    <path id="path5109" class="cls-3" d="M715.41,582.09,693.22,562" />
                    <path id="path5111" class="cls-3" d="M723,580.94,700.8,560.85" />
                    <path id="path5113" class="cls-3" d="M731.88,581.85,709.7,561.76" />
                    <path id="path5115" class="cls-3" d="M745.52,582.27l-22.18-20.09" />
                    <path id="path5117" class="cls-3" d="M742.72,575.26l-13-12.47" />
                    <path id="path5119" class="cls-3" d="M740.21,582.55,718,562.46" />
                </g>
                <g id="g5121">
                    <path id="path5123" class="cls-3" d="M763.61,498.65l-52.13-60.94" />
                    <g id="g5125">
                        <path id="path5127" class="cls-3" d="M746.35,498l-15.43,15.94" />
                        <path id="path5129" class="cls-3" d="M737.8,497.22,725.24,509" />
                        <path id="path5133" class="cls-3" d="M724.91,461.88l-18.34-16.26" />
                        <path id="path5135" class="cls-3" d="M718.91,463.67l-14.29-13.34" />
                        <path id="path5137" class="cls-3" d="M711.44,463.67l-7.5-7.77" />
                        <path id="path5139" class="cls-3" d="M697.64,458l-8.8,18.25" />
                        <path id="path5141" class="cls-3" d="M689.84,458,681,476.23" />
                        <path id="path5143" class="cls-3" d="M678.8,463l-3.28,17.28" />
                        <path id="path5145" class="cls-3" d="M670.36,468.22l-3.28,17.28" />
                        <path id="path5147" class="cls-3" d="M664,469.69,660.75,487" />
                        <path id="path5149" class="cls-3" d="M658.5,470.66l-3.6,19.07" />
                        <path id="path5151" class="cls-3" d="M651.85,473.43l-3.28,17.27" />
                    </g>
                </g>
                <g id="g5075">
                    <path id="path5077" class="cls-3" d="M750.11,669.14l30.95,22.71" />
                    <path id="path5079" class="cls-3" d="M768.4,665l-6.46-11.35" />
                    <path id="path5081" class="cls-3" d="M759.48,674l-6-9.77" />
                    <path id="path5083" class="cls-3" d="M767.5,718.93l4.08-13.56" />
                    <path id="path5085" class="cls-3" d="M764.28,718.7l4.08-13.56" />
                    <path id="path5087" class="cls-3" d="M760.15,719.39l4.08-14.94" />
                    <path id="path5089" class="cls-3" d="M755.88,717.78,760,704.22" />
                    <path id="path5091" class="cls-3" d="M751,715.94l4.09-13.56" />
                    <path id="path5093" class="cls-3" d="M773.6,665l-8.09-16.56" />
                    <path id="path5095" class="cls-3" d="M763.53,666.6l-8.09-13.31" />
                </g>
                <path id="path2384" class="cls-1"
                    d="M670.43,607.31C654.51,754.09,544.48,857.2,399.65,857.2c-163,0-255.54-107.78-277.38-248.81-1-6.43-19.17-18-38.85-27.92-20.37-10.2-52.66-25.24-69.93-12.83-6.86,5.3-12,16.57-10.95,40.19.29,6.37,3.62,16.49,14,26.37,17.4,16.57,32.49,41.73,33.62,46,4.24,16.32,12.38,30.7,17.6,48,38.37,126.73,170.56,218.54,327.58,219.3,166.27.79,299.22-100.38,330.51-222.7,4.63-18.1,24.35-57.91,24.07-58.27,20.36-22.06,41.09-45.82,41.26-63.5.33-34.42-17.86-45.71-38.75-39.42-33.49,10.08-81.16,36-82,43.7Z" />
                <path id="path2384-2" class="cls-2"
                    d="M676,617.52C660.06,764.3,551.79,863.29,407,864.75c-176.28,1.77-273.25-106.89-295.08-247.92-1-6.43-8.56-14.42-28.23-24.38C63.29,582.26,36.3,567.22,19,579.62c-6.87,5.31-2.3-2.93-1.23,20.69.29,6.38,4.51,10.29,14.88,20.17C50.09,637.06,59,672,60.11,676.28c4.25,16.33,10.4,35.5,16.72,52.38,48.11,128.51,159.94,207.91,317,208.66,166.26.8,292.13-108.35,324.31-214.71,23.89-54.26,31.66-92.4,53.83-121.78,21.14-27.13-7.24-32.41-28.14-26.12C710.32,584.79,676.81,609.8,676,617.52Z" />
                <g id="g5153">
                    <path id="path5155" class="cls-3" d="M747.51,671.56,784.23,600" />
                    <g id="g5157">
                        <path id="path5159" class="cls-3" d="M769.41,596.66l-8-28.2" />
                        <path id="path5161" class="cls-3" d="M763.61,591.9,755,570.65" />
                        <path id="path5163" class="cls-3" d="M756.43,588.3l-5.23-14.25" />
                        <path id="path5165" class="cls-3" d="M778.5,665l-8.93-21.46" />
                        <path id="path5167" class="cls-3" d="M775.67,597.16l-5.22-27.88" />
                    </g>
                </g>
                <g id="g3362">
                    <path id="path3193" class="cls-3" d="M45.65,671.56,9.38,600" />
                    <g id="g3251">
                        <path id="path3195" class="cls-3" d="M24.2,596.66l8-28.2" />
                        <path id="path3197" class="cls-3" d="M30,591.9l8.57-21.25" />
                        <path id="path3199" class="cls-3" d="M37.17,588.3l5.24-14.25" />
                        <path id="path3201" class="cls-3" d="M15.11,665,24,643.54" />
                        <path id="path3240" class="cls-3" d="M17.93,597.16l5.23-27.88" />
                    </g>
                </g>
                <g id="g5499">
                    <path id="path5483" class="cls-3" d="M96.17,587.92l4.75,15.38" />
                    <path id="path5485" class="cls-3" d="M88.68,583.68l5.59,17.55" />
                    <path id="path5487" class="cls-3" d="M82,579.59l6.72,20.48" />
                    <path id="path5489" class="cls-3" d="M75.08,577.2l6.72,20.48" />
                    <path id="path5491" class="cls-3" d="M68.29,573.1,75,593.58" />
                    <path id="path5493" class="cls-3" d="M58.3,569.92,64,587.85" />
                    <path id="path5497" class="cls-3" d="M61.85,569.34l6.72,20.49" />
                </g>
                <g id="g5521">
                    <path id="path5523" class="cls-3" d="M698.61,587.92l-4.75,15.38" />
                    <path id="path5525" class="cls-3" d="M706.09,583.68l-5.59,17.55" />
                    <path id="path5527" class="cls-3" d="M712.8,579.59l-6.72,20.48" />
                    <path id="path5529" class="cls-3" d="M719.69,577.2,713,597.68" />
                    <path id="path5531" class="cls-3" d="M726.48,573.1l-6.72,20.48" />
                    <path id="path5533" class="cls-3" d="M736.47,569.92l-5.74,17.93" />
                    <path id="path5535" class="cls-3" d="M732.92,569.34l-6.72,20.49" />
                </g>
                <path class="cls-5"
                    d="M125.78,801.87l6.76,9.27-2.74,2.26L113,795.27l2.74-2.27,8.81,7.57ZM143.36,781c7-5.84,14.17-11.73,21-17.76l5.75,6.21c-7.09,5.53-14.21,11.43-21.4,17.38l-4.17,3.46c-7,5.78-13.42,11.11-20.29,17.14l-5.75-6.21c7.1-5.54,14.21-11.43,21.4-17.38Zm2.12,14.72-5.92-6.42,3.14-2.6,6.83,7.38c7.37,8,14.69,7.39,21.19,2s7.24-12.17,0-20L164.12,769l3.15-2.61,7.73,8.36c9.94,10.75,9.42,20.91,1.41,27.54C168.75,808.6,157.7,808.94,145.48,795.73Zm10.67-36.18,2.74-2.26,8.38,9.06-3.76,3.12-.6-.65Z" />
                <path class="cls-5"
                    d="M165.54,840.55l-3.19,3.65-9.81-7.68,2.32-2.65,10,6.13Zm14.52-22.71c6-6.83,12-13.73,17.75-20.73l6.73,5.26c-6.06,6.54-12.09,13.44-18.17,20.41l-2.2,2.52c-6.67,7.63-12.69,14.53-18.45,21.53L159,841.57c6.06-6.54,12.09-13.44,18.17-20.41Zm19.53,35.61-10.81,11.43L162.35,844.2l2.9-3.32,24,18.76-6,.85,12.48-10.11Zm-2.91-18L180.84,823l2.66-3,15.85,12.39ZM189,794.72l2.32-2.66,9.82,7.68L198,803.39l-.7-.55Zm7.48,36.56,7.2-6.21,3.15,2.47-13.73,15.73L190,840.8l5.38-8.19Zm24.07-16.35.26,5.79-22.57-17.66,2.9-3.32,25,19.58-9.82,12.2-3.93-3.07Z" />
                <path class="cls-5"
                    d="M215.19,875.19l9.61,6.64-1.8,3-22.15-11.89,1.8-3,10.95,4.39ZM224.52,850c4.62-7.71,9.28-15.5,13.67-23.34l7.59,4.08c-4.9,7.66-9.3,15-14.59,23.84l-1.35,2.24c-5.07,8.46-9.73,16.25-14.12,24.09l-7.59-4.07c4.77-7.44,9.43-15.23,14.14-23.09Zm3.33,2.29,9.89,5.31c8.55,4.58,15.26,2.45,18.9-3.62,3.77-6.29,2.27-11.64-6-16.06l-10.76-5.77,2.06-3.45,10.84,5.82c12.11,6.49,16.31,15.18,11.33,23.5-3.81,6.36-12.57,9.28-23.42,4.54l.59-.47c5.39,3.58,7.39,7.92,5.49,15.81l-3.57,14.51-1.61-2.74,7.62,5.27-1.8,3a21.93,21.93,0,0,1-6.14-2.31c-4.91-2.63-6.33-5-5.21-8.93l4.06-14c2.06-6.91-.24-9.53-6.81-13.06l-7.52-4Zm1.26-26.54,1.8-3L242,828.71l-2.46,4.12-.79-.42Z" />
                <path class="cls-5"
                    d="M304,911.68l11.88,4.52-1,3.31-26.26-7,1-3.32,12.63,2Zm-7.73-52.62,5.18-3.08-7.21,14-4.9-1.31,5.11-14.56,47.78,12.79-3.7,14.93-4.9-1.31,1.6-15.49,2.7,5.19Zm10.46,26.06c2.55-8.53,5.12-17.15,7.41-25.75l8.4,2.25c-2.76,8.3-5.33,16.91-7.93,25.61l-1.24,4.14c-2.55,8.54-5.12,17.15-7.41,25.75l-8.4-2.24c2.76-8.3,5.34-16.92,7.93-25.61Z" />
                <path class="cls-5"
                    d="M352.1,921.16l-.5,4.71-12.67-1.2.36-3.43,11.9-.17Zm-7.46-50.46.36-3.42,12.67,1.2-.5,4.71-.9-.09Zm6.15,23.95c.93-8.83,1.87-17.73,2.53-26.58l8.69.82c-1.18,8.63-2.13,17.53-3.08,26.53l-.34,3.25c-1,9.86-2,18.76-2.65,27.61l-8.69-.82c1.19-8.63,2.13-17.54,3.09-26.53ZM388,913.92l-2.24,15.18-34.12-3.23.45-4.28L383,924.52l-4.52,3.9,4.42-15Zm-13-13.44-20.45-1.93.42-3.94,20.45,1.93Zm7.8-29.63,3.62,4.67-29.14-2.76.45-4.28L390,871.54l-1,15.31-5.07-.48Zm-10.37,26.28,2.32-9,4.07.39-2.14,20.3-4.08-.38-.35-9.64Z" />
                <path class="cls-5"
                    d="M422.7,875l-11.9.35-.53-3.41,24.29-3.38.6,3.83-10.66,2.36Zm-7.12-3.8,8.64-1.2,25.52,45.86-1.89.26,9.75-50.78,4.86-.67-11.64,60.52-3.59.5Zm42.12-1.08-9.13.4-.6-3.83,20.78-2.9.53,3.41-9.78,2.67Z" />
                <path class="cls-5"
                    d="M471.17,865.57l-1.07-3.29,24.34-7.09,1.07,3.29L484.61,863l-1.74.5Zm15.48,19.81c-2.76-8.48-5.54-17-8.55-25.43l8.35-2.43c2.43,8.39,5.21,16.94,8,25.58l1.34,4.12c2.75,8.47,5.53,17,8.54,25.43L496,915.08c-2.44-8.39-5.22-17-8-25.59Zm12.93,23.7,11.7-2.05,1.07,3.29L488,917.4l-1.07-3.29,10.9-4.52Z" />
                <path class="cls-5"
                    d="M501,857.41l-1.56-3.11,11.49-5.18,2.15,4.27-.82.37Zm18.36,17.46c-4-8-8.09-16.08-12.37-24l7.88-3.55c3.83,8.19,7.66,15.81,12.27,25l1.18,2.33c4.42,8.79,8.48,16.87,12.76,24.76L533.14,903c-3.7-8-7.77-16-11.87-24.2Zm3.89-1.27L533.47,869c8.86-4,10.87-10.43,7.7-16.72-3.29-6.53-8.78-8.44-17.32-4.59l-11.17,5-1.8-3.57,11.25-5.07c12.57-5.67,22.5-3.95,26.84,4.68,3.32,6.61.83,15.07-9.49,20.77l-.07-.73c6.19-2.12,11.09-1.18,16.83,4.81l10.51,11.09-3.29-.33,8.93-2.88,1.56,3.11a21,21,0,0,1-5.52,3.44c-5.09,2.3-7.93,2-10.72-1.08L548,875.78c-4.81-5.55-8.39-5.27-15.21-2.2L525,877.1Zm12.56,22.94L547,892.9l1.56,3.11-23,10.36L524,903.26l10.09-6Z" />
                <path class="cls-5"
                    d="M622,848c-3.17,6-7,11-13.08,15.21-14.74,10.09-32.7,6.55-43.41-7.47S557,824.41,572,814.17c6.12-4.18,11.49-6.26,17.37-6.79l8,9.92-4.5,3.07-9.73-9.06,5.64-1.73,3,4c-6.64-.77-11.87.47-16.58,3.7-10.32,7.06-12.11,19.86-1.93,33.18s22.86,16.12,34.36,8.25c4.2-2.87,6.6-5.9,9.31-10.72l-.81,5.54-3.09-4c-4-5.3-8.28-10.7-12.48-15.9l7.08-4.84c3.85,5.34,7.88,10.76,12,16.2Zm-27-6.39-2.13-2.79,19.16-13.11,2.13,2.79-7.57,6.24-1.48,1Z" />
                <path class="cls-5"
                    d="M655.19,780.68c14.57,12.86,14,30,4.37,39.75s-27.1,12.11-42.26-1.28C602.73,806.29,603.44,789,613,779.34S640,767.3,655.19,780.68Zm1,36.82c8.75-8.88,2.43-21.4-7.55-30.21s-23.61-13.89-32.36-5-2.49,21.46,7.49,30.27S647.49,826.38,656.23,817.5Z" />
            </g>
            <path class="cls-6"
                d="M611.32,186.75l7.87,2.76-3.78,14.56c-3.48-.73-7-1.47-10.46-2.19q-2.09,10.11-4.16,20.24l7.43,2.56q-2.9,7.66-5.81,15.32a927.71,927.71,0,0,0-411.82,0q-2.91-7.65-5.81-15.32l7.43-2.56q-2.09-10.12-4.16-20.24c-3.49.72-7,1.46-10.46,2.19l-3.78-14.56,7.87-2.76q-17.6-79.62-35.18-159.23l90.26-18,4.92,21.91q2.48,10.95,4.93,21.91l29-4.62q-2.7-21.41-5.39-42.84L369,0l2.64,41.79h49.66L424,0l98.8,5.91q-2.7,21.42-5.39,42.84l29,4.62q4.93-21.91,9.85-43.82l90.26,18Q628.91,107.14,611.32,186.75Z" />
            <rect class="cls-7" x="373.03" y="46.99" width="28.47" height="13.12" />
            <rect class="cls-7" x="374.34" y="65.7" width="13.94" height="13.12" />
            <rect class="cls-7" x="375.7" y="83.65" width="25.65" height="13.12" />
            <rect class="cls-7" x="405.72" y="83.65" width="11.09" height="13.12" />
            <rect class="cls-7" x="377.43" y="101.94" width="11.72" height="13.12" />
            <rect class="cls-7" x="393.95" y="101.94" width="21.79" height="13.12" />
            <rect class="cls-7" x="379.37" y="119.34" width="22.28" height="13.12" />
            <rect class="cls-7" x="405.72" y="119.34" width="9.29" height="13.12" />
            <rect class="cls-7" x="380.05" y="135.97" width="11.22" height="13.12" />
            <rect class="cls-7" x="403.54" y="153.76" width="9.4" height="9.57" />
            <rect class="cls-7" x="380.67" y="153.76" width="18.82" height="9.57" />
            <rect class="cls-7" x="395.57" y="135.97" width="18.16" height="13.12" />
            <rect class="cls-7" x="393.51" y="65.7" width="24.07" height="13.12" />
            <rect class="cls-7" x="407.27" y="46.99" width="11.77" height="13.12" />
            <polygon class="cls-7" points="255.01 69.14 219.5 75.09 217.27 62.15 252.78 56.21 255.01 69.14" />
            <polygon class="cls-7" points="241.7 90.35 224.32 93.26 222.08 80.33 239.47 77.42 241.7 90.35" />
            <polygon class="cls-7" points="261.05 105.32 229.06 110.68 226.83 97.74 258.82 92.38 261.05 105.32" />
            <polygon class="cls-7" points="280.34 102.09 266.51 104.41 264.28 91.47 278.11 89.15 280.34 102.09" />
            <polygon class="cls-7" points="248.95 125.89 234.34 128.34 232.11 115.4 246.72 112.96 248.95 125.89" />
            <polygon class="cls-7" points="282.11 120.34 254.94 124.89 252.71 111.96 279.88 107.41 282.11 120.34" />
            <polygon class="cls-7" points="267.5 140.44 239.72 145.09 237.49 132.15 265.27 127.5 267.5 140.44" />
            <polygon class="cls-7" points="284.16 137.65 272.58 139.59 270.35 126.65 281.93 124.71 284.16 137.65" />
            <polygon class="cls-7" points="257.38 159 243.39 161.34 241.16 148.41 255.15 146.06 257.38 159" />
            <polygon class="cls-7" points="286.83 168.51 275.11 170.48 273.48 161.04 285.2 159.08 286.83 168.51" />
            <polygon class="cls-7" points="270.06 171.32 246.59 175.25 244.96 165.82 268.43 161.89 270.06 171.32" />
            <polygon class="cls-7" points="285.4 154.31 262.75 158.1 260.52 145.16 283.17 141.37 285.4 154.31" />
            <polygon class="cls-7" points="278.24 84.23 248.22 89.26 245.99 76.32 276 71.3 278.24 84.23" />
            <polygon class="cls-7" points="276.89 65.48 262.21 67.94 259.98 55 274.66 52.54 276.89 65.48" />
            <polygon class="cls-7" points="374.87 163.71 362.23 164.4 361.46 154.88 374.24 154.17 374.87 163.71" />
            <path class="cls-7"
                d="M373.92,149.48l-12.83.7h0l-4.21.24.42,4.69.87,9.51-6.37.36-.8-9.52-.41-4.7-1.1-13-.3-3.58-1.11-13a19.46,19.46,0,0,0-.4-4.35,19.84,19.84,0,0,0-8.74-12.62,18.49,18.49,0,0,0-21.9,1.22,19.67,19.67,0,0,0-7.32,13.49,18.79,18.79,0,0,0,.09,4.36h0l1.11,13,.3,3.63,1.1,13,.4,4.73.81,9.5-12.4.68-9.42.52-.86-9.49,9.37-.52-.45-4.73-9.34.52-1.18-13,9.27-.52-.35-3.63-9.25.5-1.17-13,9.18-.51-.42-4.34-9.15.5-1.18-13,9.09-.5-.5-5.27-9.06.5-1.18-13,9-.51L293,83.42l-9,.51-1.17-13,8.89-.5-.55-5.73-8.86.49-1.17-13,8.79-.49L289.45,46l-8.76.49L277.48,10.9l8.57-.47L297,9.83l1.29,15.4.45,5.37,16.62-.91-.24-5.37-.68-15.43,20.31-1.1.86,15.41.31,5.38,4.5-.24,5.31-.29,5.53-.3-.21-5.39-.6-15.43,14-.76Q365.63,24,366.8,41.78l-14.34.77-5.38.3-5.47.3.45,5.63,5.53-.31,1.19,13-5.67.31.45,5.69,5.74-.33,1.18,13-5.86.32.38,4.9,5.92-.34,1.19,13-6.05.33.42,5.24,6.1-.33,4.73-.27,13.49-.75.87,13.07-13.31.74-4.58.25.39,4.36,1.19,13,.32,3.56L373,136.07Q373.44,142.77,373.92,149.48Z" />
            <polygon class="cls-7" points="368.03 60.44 353.95 61.22 352.9 48.17 367.17 47.38 368.03 60.44" />
            <path class="cls-7" d="M369.27,79.16l-18.79,1q-.59-6.52-1.18-13l19.1-1.07Z" />
            <polygon class="cls-7" points="370.46 97.12 356.89 97.87 355.84 84.82 369.59 84.05 370.46 97.12" />
            <polygon class="cls-7" points="372.82 132.87 359.75 133.58 358.71 120.52 371.96 119.8 372.82 132.87" />
            <path class="cls-7"
                d="M339,164.68l-17.42,1c-.22-3.16-.44-6.34-.67-9.5l-.33-4.73q-.45-6.51-.91-13c-.09-1.2-.17-2.41-.26-3.61-.18-2.61-.36-5.21-.55-7.82a8.67,8.67,0,0,1,.87-5.29h0a8.16,8.16,0,0,1,14.29-.78,8.71,8.71,0,0,1,1.45,4.57c.24,2.81.49,5.6.75,8.4.1,1.2.21,2.39.33,3.59q.57,6.51,1.17,13c.14,1.56.28,3.14.41,4.7Q338.58,159.93,339,164.68Z" />
            <polygon class="cls-7" points="537.99 69.14 573.5 75.09 575.73 62.15 540.22 56.21 537.99 69.14" />
            <polygon class="cls-7" points="551.3 90.35 568.68 93.26 570.92 80.33 553.53 77.42 551.3 90.35" />
            <polygon class="cls-7" points="531.95 105.32 563.94 110.68 566.17 97.74 534.18 92.38 531.95 105.32" />
            <polygon class="cls-7" points="512.66 102.09 526.49 104.41 528.72 91.47 514.89 89.15 512.66 102.09" />
            <polygon class="cls-7" points="544.05 125.89 558.66 128.34 560.89 115.4 546.28 112.96 544.05 125.89" />
            <polygon class="cls-7" points="510.89 120.34 538.06 124.89 540.29 111.96 513.13 107.41 510.89 120.34" />
            <polygon class="cls-7" points="525.5 140.44 553.28 145.09 555.51 132.15 527.73 127.5 525.5 140.44" />
            <polygon class="cls-7" points="508.84 137.65 520.42 139.59 522.65 126.65 511.07 124.71 508.84 137.65" />
            <polygon class="cls-7" points="535.62 159 549.61 161.34 551.84 148.41 537.85 146.06 535.62 159" />
            <polygon class="cls-7" points="506.17 168.51 517.89 170.48 519.52 161.04 507.8 159.08 506.17 168.51" />
            <polygon class="cls-7" points="522.94 171.32 546.41 175.25 548.04 165.82 524.57 161.89 522.94 171.32" />
            <polygon class="cls-7" points="507.6 154.31 530.25 158.1 532.48 145.16 509.83 141.37 507.6 154.31" />
            <polygon class="cls-7" points="514.76 84.23 544.78 89.26 547.01 76.32 517 71.3 514.76 84.23" />
            <polygon class="cls-7" points="516.11 65.48 530.79 67.94 533.02 55 518.34 52.54 516.11 65.48" />
            <polygon class="cls-7" points="418.13 163.71 430.77 164.4 431.54 154.88 418.76 154.17 418.13 163.71" />
            <path class="cls-7"
                d="M419.08,149.48l12.83.7h0l4.21.24-.42,4.69-.87,9.51,6.37.36.8-9.52.41-4.7,1.1-13,.3-3.58,1.11-13a19.46,19.46,0,0,1,.4-4.35,19.84,19.84,0,0,1,8.74-12.62,18.49,18.49,0,0,1,21.9,1.22,19.67,19.67,0,0,1,7.32,13.49,18.79,18.79,0,0,1-.09,4.36h0l-1.11,13-.3,3.63-1.1,13-.4,4.73-.81,9.5,12.4.68,9.42.52.86-9.49-9.37-.52.45-4.73,9.34.52,1.18-13-9.27-.52.35-3.63,9.25.5,1.17-13-9.18-.51.42-4.34,9.15.5,1.18-13-9.09-.5.5-5.27,9.06.5,1.18-13-9-.51.46-4.88,9,.51,1.17-13-8.89-.5.55-5.73,8.86.49,1.17-13L503,51.69l.55-5.71,8.76.49,3.21-35.57L507,10.43,496,9.83l-1.29,15.4-.45,5.37-16.62-.91.24-5.37.68-15.43-20.31-1.1-.86,15.41-.31,5.38-4.5-.24-5.31-.29-5.53-.3.21-5.39.6-15.43-14-.76Q427.38,24,426.2,41.78l14.34.77,5.38.3,5.47.3-.45,5.63-5.53-.31-1.19,13,5.67.31-.45,5.69-5.74-.33-1.18,13,5.86.32-.38,4.9-5.92-.34-1.19,13,6.05.33-.42,5.24-6.1-.33-4.73-.27-13.49-.75-.87,13.07,13.31.74,4.58.25-.39,4.36-1.19,13-.32,3.56-17.27-1.31Q419.56,142.77,419.08,149.48Z" />
            <polygon class="cls-7" points="424.97 60.44 439.05 61.22 440.1 48.17 425.83 47.38 424.97 60.44" />
            <path class="cls-7" d="M423.73,79.16l18.79,1q.59-6.52,1.18-13L424.6,66.1Z" />
            <polygon class="cls-7" points="422.54 97.12 436.11 97.87 437.16 84.82 423.41 84.05 422.54 97.12" />
            <polygon class="cls-7" points="420.18 132.87 433.25 133.58 434.29 120.52 421.04 119.8 420.18 132.87" />
            <path class="cls-7"
                d="M454,164.68l17.42,1c.22-3.16.44-6.34.67-9.5l.33-4.73q.45-6.51.91-13c.09-1.2.17-2.41.26-3.61.18-2.61.36-5.21.55-7.82a8.67,8.67,0,0,0-.87-5.29h0a8.16,8.16,0,0,0-14.29-.78,8.71,8.71,0,0,0-1.45,4.57c-.24,2.81-.49,5.6-.75,8.4-.1,1.2-.21,2.39-.33,3.59q-.57,6.51-1.17,13c-.14,1.56-.28,3.14-.41,4.7Q454.42,159.93,454,164.68Z" />
            <path class="cls-7"
                d="M223.3,111.72l16,64.86-22,4.18-5.1-26.21h0a38,38,0,0,0-1.07-5.48c-1.85-7-6.71-18.9-19-24.76l-1.45-6.37-2.91-12.78-1.08-4.76-5.13,1L169,103.8,166.23,91l12.5-2.41,5.13-1-1.27-5.53-2.9-12.78-1.23-5.44-5.13,1L161,67.2l-2.9-13.29-1.22-5.55-3.29-15,12-2.55h0l5.07-1.07,3.5,15.35,1.26,5.53,16-3.09L190.37,42l-3.07-15.8,14.1-3,3.95,15.93,1.34,5.48,16.55-3.19-1.19-5.48L218.5,19.51l13.68-2.91q4.06,18.09,8.14,36.19l-14.1,2.36L210,57.87h0l-.65.12.66-.11,1.32,5.36L214.47,76l1.35,5.47L219,94.22,220.15,99Z" />
            <path class="cls-7"
                d="M205.57,183l-18.45,3.52-11.38-52a18.14,18.14,0,0,1,10.23.35c7.87,2.69,10.75,10.14,11.26,11.56,0,.05,0,.08,0,.12Z" />
            <polygon class="cls-7" points="177.48 83.07 165.01 85.45 162.22 72.67 174.57 70.29 177.48 83.07" />
            <path class="cls-7" d="M185.62,118.92l-12.73,2.44h0l-2.8-12.8,12.66-2.42Z" />
            <path class="cls-7"
                d="M569.7,111.72l-16,64.86,22,4.18,5.1-26.21h0a38,38,0,0,1,1.07-5.48c1.85-7,6.71-18.9,19-24.76l1.45-6.37,2.91-12.78,1.08-4.76,5.13,1L624,103.8,626.77,91l-12.5-2.41-5.13-1,1.27-5.53,2.9-12.78,1.23-5.44,5.13,1L632,67.2l7.41-33.87-12-2.55h0l-5.07-1.07-3.5,15.35-1.26,5.53-16-3.09L602.63,42l3.07-15.8-14.1-3-4,15.93-1.34,5.48-16.55-3.19L571,35.89l3.55-16.38L560.82,16.6q-4.07,18.09-8.14,36.19l14.1,2.36L583,57.87h0l.65.12-.66-.11-1.32,5.36L578.53,76l-1.35,5.47L574,94.22,572.85,99Z" />
            <path class="cls-7"
                d="M587.43,183l18.45,3.52,11.38-52a18.14,18.14,0,0,0-10.23.35c-7.87,2.69-10.75,10.14-11.26,11.56,0,.05,0,.08,0,.12Z" />
            <polygon class="cls-7" points="615.52 83.07 627.99 85.45 630.78 72.67 618.43 70.29 615.52 83.07" />
            <path class="cls-7" d="M607.38,118.92l12.73,2.44h0l2.8-12.8-12.66-2.42Z" />
            <path class="cls-7"
                d="M612.35,196c-.24,1.06-.47,2.12-.71,3.18A920.27,920.27,0,0,0,396.5,174.27a920.27,920.27,0,0,0-215.14,24.95c-.24-1.06-.47-2.12-.71-3.18,19.55-4.75,40.25-9.09,62-12.78a891.38,891.38,0,0,1,153.8-12.4,891.38,891.38,0,0,1,153.8,12.4C572.1,187,592.8,191.29,612.35,196Z" />
            <path class="cls-7"
                d="M600.64,230.79,599.41,234a891.47,891.47,0,0,0-405.82,0l-1.23-3.22c25.51-6,53.48-11.34,83.69-15.43a899.62,899.62,0,0,1,240.9,0C547.16,219.45,575.13,224.81,600.64,230.79Z" />
            <polygon class="cls-7" points="392.53 198.26 354.58 199.57 354.3 191.53 392.25 190.22 392.53 198.26" />
            <rect class="cls-7" x="377.51" y="178.89" width="37.97" height="8.05" />
            <polygon class="cls-7" points="370.27 186.29 332.38 188.9 331.81 180.88 369.7 178.26 370.27 186.29" />
            <polygon class="cls-7" points="349.75 199.34 311.92 202.61 311.21 194.59 349.04 191.33 349.75 199.34" />
            <polygon class="cls-7" points="326.88 188.54 289.19 193.1 288.19 185.11 325.88 180.55 326.88 188.54" />
            <polygon class="cls-7" points="306.37 203.03 268.68 207.59 267.68 199.61 305.37 195.05 306.37 203.03" />
            <polygon class="cls-7" points="283.13 193.02 245.62 198.88 244.34 190.93 281.85 185.07 283.13 193.02" />
            <polygon class="cls-7" points="263.58 208.3 226.31 215.44 224.75 207.54 262.02 200.41 263.58 208.3" />
            <polygon class="cls-7" points="221.74 216.26 197.99 221.66 196.15 213.82 219.9 208.42 221.74 216.26" />
            <polygon class="cls-7" points="239.69 199.91 202.69 208.33 200.85 200.49 237.85 192.07 239.69 199.91" />
            <polygon class="cls-7" points="198.38 209.31 194.31 210.24 192.47 202.4 196.54 201.47 198.38 209.31" />
            <polygon class="cls-7" points="594.62 209.31 598.69 210.24 600.52 202.4 596.46 201.47 594.62 209.31" />
            <path class="cls-5"
                d="M613.11,192.65c-.25,1.14-.51,2.27-.76,3.39-19.55-4.75-40.25-9.09-62.05-12.78a891.38,891.38,0,0,0-153.8-12.4,891.38,891.38,0,0,0-153.8,12.4c-21.8,3.69-42.5,8-62,12.78-.25-1.12-.51-2.25-.76-3.39a922.89,922.89,0,0,1,216.61-24.9,922.89,922.89,0,0,1,216.61,24.9Z" />
            <path class="cls-5"
                d="M602,227.35c-.44,1.14-.88,2.29-1.31,3.44-25.51-6-53.48-11.34-83.69-15.43a899.62,899.62,0,0,0-240.9,0c-30.21,4.09-58.18,9.45-83.69,15.43-.43-1.15-.87-2.3-1.31-3.44a918.91,918.91,0,0,1,410.9,0Z" />
            <polygon class="cls-7" points="400.47 198.26 438.42 199.57 438.7 191.53 400.75 190.22 400.47 198.26" />
            <rect class="cls-7" x="377.51" y="178.89" width="37.97" height="8.05"
                transform="translate(793 365.83) rotate(-180)" />
            <polygon class="cls-7" points="422.73 186.29 460.62 188.9 461.19 180.88 423.3 178.26 422.73 186.29" />
            <polygon class="cls-7" points="443.25 199.34 481.08 202.61 481.79 194.59 443.96 191.33 443.25 199.34" />
            <polygon class="cls-7" points="466.12 188.54 503.81 193.1 504.81 185.11 467.12 180.55 466.12 188.54" />
            <polygon class="cls-7" points="486.63 203.03 524.32 207.59 525.32 199.61 487.63 195.05 486.63 203.03" />
            <polygon class="cls-7" points="509.87 193.02 547.38 198.88 548.66 190.93 511.15 185.07 509.87 193.02" />
            <polygon class="cls-7" points="529.42 208.3 566.69 215.44 568.25 207.54 530.98 200.41 529.42 208.3" />
            <polygon class="cls-7" points="571.26 216.26 595.01 221.66 596.85 213.82 573.1 208.42 571.26 216.26" />
            <polygon class="cls-7" points="553.31 199.91 590.31 208.33 592.15 200.49 555.15 192.07 553.31 199.91" />
            <path class="cls-8"
                d="M396.5,842.5c-122.09,0-223.2-96.25-231.35-219.62,26.58.5,40.6,7.68,54.18,14.64,14.73,7.54,29.95,15.33,60,15.33s45.25-7.79,60-15.32c14.09-7.22,28.65-14.68,57.22-14.68s43.14,7.46,57.23,14.67c14.73,7.54,29.94,15.33,60,15.33s45.25-7.79,60-15.32c13.59-7,27.61-14.15,54.2-14.65C619.7,746.25,518.59,842.5,396.5,842.5Z" />
            <path
                d="M396.49,625.35c28,0,42.27,7.32,56.11,14.41,15,7.66,30.46,15.59,61.08,15.59s46.12-7.93,61.12-15.61c12.85-6.58,26.1-13.36,50.36-14.28C615.79,746.2,516.36,840,396.5,840S177.21,746.2,167.84,625.46c24.25.92,37.51,7.71,50.36,14.29,15,7.67,30.48,15.6,61.1,15.6s46.12-7.93,61.12-15.61c13.82-7.07,28.1-14.39,56.07-14.39m234-5c-28.94.06-43.71,7.63-58,14.95-14.46,7.4-29.41,15.05-58.83,15.05s-44.36-7.65-58.82-15.05-29.19-14.95-58.37-14.95-44,7.6-58.36,14.95-29.41,15.05-58.83,15.05-44.36-7.65-58.82-15.05c-14.29-7.32-29.06-14.89-58-14.95C169.38,745.59,271.5,845,396.5,845s227.12-99.41,234-224.65Z" />
            <path class="cls-9"
                d="M513.68,647.85c-28.81,0-43.48-7.51-57.67-14.77-14.63-7.49-29.74-15.23-59.52-15.23s-44.88,7.74-59.48,15.22c-14.21,7.27-28.89,14.78-57.71,14.78s-43.49-7.51-57.68-14.78-28.79-14.74-56.75-15.2c-.06-1.25-.11-2.53-.15-3.9s-.06-2.57-.08-3.86c0-1.08,0-2.18,0-3.26l-7-162.93c27.46.52,42,7.7,56,14.66,15.2,7.53,30.9,15.31,61.87,15.31s46.67-7.78,61.86-15.31c14.56-7.22,29.62-14.69,59.19-14.69s44.62,7.47,59.19,14.69c15.2,7.53,30.9,15.31,61.87,15.31s46.67-7.78,61.86-15.31c14-7,28.54-14.14,56-14.66l-7,162.93c0,1.09,0,2.18,0,3.26v.14c0,1.24,0,2.47-.08,3.71s-.09,2.67-.15,3.91c-28,.46-42.59,8-56.75,15.2S542.5,647.85,513.68,647.85Z" />
            <path class="cls-7"
                d="M396.49,446.39c29,0,43.77,7.33,58.09,14.43,15.44,7.65,31.41,15.57,63,15.57s47.53-7.92,63-15.57c13.32-6.6,27.06-13.42,52.27-14.33l-6.92,160.14v.22c0,1.07,0,2.15,0,3.22,0,1.28,0,2.54-.08,3.83,0,.52,0,1,0,1.53-27,.83-41.48,8.24-55.5,15.42s-28.33,14.5-56.55,14.5-42.6-7.37-56.54-14.5c-14.88-7.62-30.26-15.5-60.65-15.5s-45.76,7.88-60.64,15.5c-13.93,7.13-28.33,14.5-56.55,14.5s-42.61-7.37-56.55-14.51-28.47-14.58-55.48-15.41c0-.5,0-1-.05-1.54,0-1.28-.06-2.54-.08-3.83,0-1.06,0-2.14,0-3.21v-.22L160.2,446.49c25.2.91,38.94,7.73,52.27,14.33,15.44,7.65,31.41,15.57,63,15.57s47.53-7.92,63-15.57c14.31-7.09,29.1-14.43,58.08-14.43m241.54-5c-29.77.1-45,7.65-59.73,14.95-14.93,7.4-30.37,15.05-60.75,15.05s-45.82-7.65-60.75-15.05-30.16-14.95-60.31-14.95S351,449,336.19,456.34s-30.37,15.05-60.75,15.05-45.82-7.65-60.75-15.05c-14.73-7.3-30-14.85-59.72-14.95l7.15,165.46c0,1.1,0,2.21,0,3.3,0,1.3,0,2.59.08,3.89.05,1.78.12,3.55.22,5.31,0,.33,0,.67.05,1,28.93.06,43.7,7.63,58,14.95,14.46,7.4,29.41,15.05,58.82,15.05s44.37-7.65,58.83-15.05,29.18-14.95,58.36-14.95,44,7.6,58.37,14.95,29.4,15.05,58.82,15.05,44.37-7.65,58.83-15.05c14.29-7.32,29.06-14.89,58-14.95,0-.33,0-.67,0-1,.1-1.76.17-3.53.22-5.31,0-1.3.06-2.59.08-3.89,0-1.09,0-2.2,0-3.3L638,441.39Z" />
            <path class="cls-10"
                d="M517.55,468.89c-29.8,0-45-7.52-59.64-14.79-15.09-7.48-30.69-15.21-61.42-15.21s-46.33,7.73-61.41,15.21c-14.67,7.27-29.84,14.79-59.64,14.79s-45-7.52-59.64-14.79-29.66-14.7-58.43-15.19L149.11,247.5H643.89l-8.26,191.41c-28.78.49-43.85,8-58.43,15.19S547.35,468.89,517.55,468.89Z" />
            <path class="cls-11"
                d="M641.28,250l-7.67,177.67-.38,8.8c-27.81.85-42.71,8.23-57.15,15.39s-29.32,14.53-58.53,14.53S473.43,459,459,451.86c-15.34-7.61-31.2-15.47-62.52-15.47S349.3,444.25,334,451.86c-14.41,7.14-29.32,14.53-58.53,14.53S231.32,459,216.9,451.86s-29.33-14.54-57.13-15.39l-.38-8.8L151.72,250H641.28m5.22-5h-500l7.89,182.89.54,12.5,0,1c29.76.1,45,7.65,59.72,14.95,14.93,7.4,30.37,15.05,60.75,15.05s45.82-7.65,60.75-15.05,30.15-14.95,60.3-14.95S442,449,456.8,456.34s30.37,15.05,60.75,15.05,45.82-7.65,60.75-15.05c14.73-7.3,30-14.85,59.73-14.95l0-1,.54-12.5L646.5,245Z" />
            <polygon class="cls-7"
                points="495.78 384.63 451.02 414.23 480.63 369.47 428.05 358.75 480.63 348.03 451.02 303.27 495.78 332.88 506.5 280.3 517.22 332.88 561.98 303.27 532.38 348.03 584.95 358.75 532.38 369.47 561.98 414.23 517.22 384.63 506.5 437.2 495.78 384.63" />
            <path class="cls-12"
                d="M506.5,285.3l9.44,46.32.59,2.91,2.48-1.64,39.42-26.07-26.07,39.42-1.64,2.48,2.91.59L580,358.75l-46.32,9.44-2.91.59,1.64,2.48,26.07,39.42L519,384.61,516.53,383l-.59,2.91L506.5,432.2l-9.44-46.32-.59-2.91L494,384.61l-39.42,26.07,26.07-39.42,1.64-2.48-2.91-.59-46.32-9.44,46.32-9.44,2.91-.59-1.64-2.48-26.07-39.42L494,332.89l2.48,1.64.59-2.91,9.44-46.32m0-10-11.4,55.93-47.61-31.48L479,347.35,423,358.75,479,370.15l-31.48,47.61,47.61-31.48,11.4,55.93,11.4-55.93,47.61,31.48L534,370.15,590,358.75,534,347.35l31.48-47.61L517.9,331.22l-11.4-55.93Z" />
            <polygon class="cls-5"
                points="506.5 295.29 498 336.97 462.53 313.5 485.99 348.98 444.31 357.48 485.99 365.97 462.53 401.45 498 377.99 506.5 419.66 515 377.99 550.47 401.45 527.01 365.97 568.69 357.48 527.01 348.98 550.47 313.5 515 336.97 506.5 295.29" />
            <polygon class="cls-9"
                points="506.5 309.29 500.14 340.47 473.6 322.92 491.16 349.46 459.98 355.81 491.16 362.17 473.6 388.71 500.14 371.16 506.5 402.33 512.86 371.16 539.4 388.71 521.84 362.17 553.02 355.81 521.84 349.46 539.4 322.92 512.86 340.47 506.5 309.29" />
            <polygon class="cls-7"
                points="275.78 384.63 231.03 414.23 260.63 369.47 208.05 358.75 260.63 348.03 231.03 303.27 275.78 332.88 286.5 280.3 297.22 332.88 341.98 303.27 312.38 348.03 364.95 358.75 312.38 369.47 341.98 414.23 297.22 384.63 286.5 437.2 275.78 384.63" />
            <path class="cls-12"
                d="M286.5,285.3l9.44,46.32.59,2.91,2.48-1.64,39.42-26.07-26.07,39.42-1.64,2.48,2.91.59L360,358.75l-46.32,9.44-2.91.59,1.64,2.48,26.07,39.42L299,384.61,296.53,383l-.59,2.91L286.5,432.2l-9.44-46.32-.59-2.91L274,384.61l-39.42,26.07,26.07-39.42,1.64-2.48-2.91-.59-46.32-9.44,46.32-9.44,2.91-.59-1.64-2.48-26.07-39.42L274,332.89l2.48,1.64.59-2.91,9.44-46.32m0-10-11.4,55.93-47.61-31.48L259,347.35,203,358.75,259,370.15l-31.48,47.61,47.61-31.48,11.4,55.93,11.4-55.93,47.61,31.48L314,370.15,370,358.75,314,347.35l31.48-47.61L297.9,331.22l-11.4-55.93Z" />
            <polygon class="cls-5"
                points="286.5 295.29 295 336.97 330.47 313.5 307.01 348.98 348.69 357.48 307.01 365.97 330.47 401.45 295 377.99 286.5 419.66 278 377.99 242.53 401.45 265.99 365.97 224.31 357.48 265.99 348.98 242.53 313.5 278 336.97 286.5 295.29" />
            <polygon class="cls-9"
                points="286.5 309.29 292.86 340.47 319.4 322.92 301.84 349.46 333.02 355.81 301.84 362.17 319.4 388.71 292.86 371.16 286.5 402.33 280.14 371.16 253.6 388.71 271.16 362.17 239.98 355.81 271.16 349.46 253.6 322.92 280.14 340.47 286.5 309.29" />
            <path class="cls-2"
                d="M646.5,245l-7.89,182.89-7.73,179c0,1.1,0,2.21,0,3.3,0,1.3,0,2.59-.08,3.89C627,742.23,523.59,845,396.5,845S166,742.23,162.22,614c0-1.3-.06-2.59-.08-3.89,0-1.09,0-2.2,0-3.3l-7.73-179L146.5,245h500m5.22-5H141.28l.22,5.22,7.89,182.89L157.12,607c0,1.09,0,2.2,0,3.28,0,1.31,0,2.63.08,4a243.66,243.66,0,0,0,72.37,167C274.52,825.55,333.8,850,396.5,850s122-24.45,166.91-68.85a243.66,243.66,0,0,0,72.37-167c0-1.32.06-2.64.08-4,0-1.07,0-2.18,0-3.27l7.73-178.85,7.89-182.89.22-5.22Z" />
        </g>
    </g>
</svg>